<svg id="레이어_1" data-name="레이어 1" xmlns="http://www.w3.org/2000/svg" viewBox="0 0 32 32"><defs><style>.cls-1{fill:#ba072e;}.cls-2{fill:none;stroke:#ba072e;stroke-miterlimit:10;}</style></defs><path class="cls-1" d="M20.88,21.75c9.06-3,9.57-12.42,9.57-12.42-6.88,0-10.35,3.93-10.35,3.93A15.88,15.88,0,0,0,16,2.11a15.88,15.88,0,0,0-4.1,11.15S8.43,9.37,1.55,9.33c0,0,.51,9.45,9.57,12.42,0,0-3.12.43-5.39,4.41,0,0,5.69,2.87,10-3.09v3.78h.6V23.07c4.28,6,10,3.09,10,3.09C24,22.18,20.88,21.75,20.88,21.75Z"/><path class="cls-2" d="M20.88,21.75c9.06-3,9.57-12.42,9.57-12.42-6.88,0-10.35,3.93-10.35,3.93A15.88,15.88,0,0,0,16,2.11a15.88,15.88,0,0,0-4.1,11.15S8.43,9.37,1.55,9.33c0,0,.51,9.45,9.57,12.42,0,0-3.12.43-5.39,4.41,0,0,5.69,2.87,10-3.09v3.78h.6V23.07c4.28,6,10,3.09,10,3.09C24,22.18,20.88,21.75,20.88,21.75Z"/><rect class="cls-1" x="15.56" y="22.89" width="0.89" height="6.98"/><rect class="cls-2" x="15.56" y="22.89" width="0.89" height="6.98"/></svg>